<svg preserveAspectRatio="none" width="100%" height="100%" overflow="visible" style="display: block;" viewBox="0 0 25.9935 16.0954" fill="none" xmlns="http://www.w3.org/2000/svg">
<path id="Vector" d="M7.69845 0C8.4775 0 9.18774 0.067562 9.82931 0.202942C10.4709 0.338194 11.0208 0.560074 11.4789 0.867814C11.9371 1.17594 12.2923 1.58553 12.5444 2.0966C12.7964 2.60766 12.9224 3.23875 12.9224 3.99013C12.9224 4.80177 12.7353 5.47803 12.3611 6.01891C11.9867 6.55991 11.4332 7.00316 10.7 7.34891C11.7081 7.63451 12.4604 8.13444 12.9569 8.84794C13.4529 9.56195 13.7017 10.4225 13.7017 11.4291C13.7017 12.2406 13.5414 12.9434 13.2204 13.5371C12.8998 14.131 12.468 14.6155 11.9261 14.9907C11.3837 15.3666 10.7651 15.6444 10.0702 15.8251C9.37092 16.0058 8.65084 16.0967 7.92788 16.0954H0V0H7.69845ZM7.24026 6.515C7.88183 6.515 8.40869 6.36478 8.82123 6.06408C9.23365 5.76363 9.43979 5.27508 9.43979 4.59882C9.43979 4.22327 9.37112 3.91501 9.23365 3.67458C9.09618 3.43427 8.91293 3.24605 8.68376 3.11105C8.4546 2.97567 8.19111 2.88213 7.89328 2.82916C7.58694 2.77593 7.2764 2.74956 6.96532 2.75034H3.59724V6.51513H7.24026V6.515ZM7.4464 13.3452C7.79756 13.3452 8.13375 13.3113 8.45447 13.2437C8.77519 13.176 9.05768 13.0633 9.30232 12.9054C9.54643 12.7479 9.74126 12.5335 9.88653 12.2629C10.0315 11.9925 10.1041 11.6469 10.1041 11.2259C10.1041 10.3997 9.86715 9.8098 9.39388 9.45651C8.92021 9.10334 8.29399 8.92663 7.51507 8.92663H3.59724V13.3449L7.4464 13.3452V13.3452ZM18.2286 13.0071C18.7174 13.4734 19.4201 13.7059 20.3366 13.7059C20.9931 13.7059 21.5585 13.5446 22.0319 13.2213C22.5054 12.8986 22.7957 12.5564 22.9026 12.1956H25.7666C25.3085 13.5931 24.6056 14.5928 23.6588 15.1936C22.7114 15.7949 21.5658 16.0954 20.2218 16.0954C19.29 16.0954 18.4497 15.9489 17.7014 15.6557C16.9528 15.3628 16.3188 14.9457 15.7998 14.4047C15.2804 13.8638 14.8794 13.218 14.5968 12.4662C14.3141 11.715 14.1731 10.8882 14.1731 9.98651C14.1731 9.11511 14.3178 8.3036 14.6084 7.5521C14.8983 6.80086 15.3106 6.15083 15.8457 5.60202C16.38 5.05372 17.0179 4.6216 17.7589 4.30593C18.4995 3.99025 19.3206 3.83261 20.2219 3.83261C21.2301 3.83261 22.1082 4.02416 22.857 4.4074C23.6052 4.79051 24.2201 5.30579 24.7014 5.95147C25.1825 6.59779 25.5298 7.33432 25.7441 8.16055C25.9579 8.98728 26.034 9.85126 25.9733 10.753H17.427C17.4726 11.7897 17.7395 12.5415 18.2286 13.0071V13.0071ZM21.906 6.87559C21.5166 6.45499 20.9245 6.24437 20.1305 6.24437C19.611 6.24437 19.1796 6.331 18.836 6.50361C18.4923 6.67674 18.2172 6.89043 18.0109 7.14609C17.8049 7.40175 17.6595 7.67238 17.5758 7.9576C17.4916 8.24321 17.4419 8.49874 17.4267 8.72407H22.7194C22.5667 7.91243 22.2956 7.29644 21.906 6.87559V6.87559ZM16.8711 0.81727H23.484V2.62123H16.8711V0.81727Z" fill="var(--fill-0, #03045E)"/>
</svg>
