<svg preserveAspectRatio="none" width="100%" height="100%" overflow="visible" style="display: block;" viewBox="0 0 26 14.9874" fill="none" xmlns="http://www.w3.org/2000/svg">
<path id="Vector" d="M7.33281 0C11.3828 0 14.6656 3.35529 14.6656 7.49382C14.6656 11.6325 11.3825 14.9874 7.33281 14.9874C3.28331 14.9874 0 11.6325 0 7.49382C0 3.3554 3.28301 0 7.33281 0ZM19.043 0.438933C21.0679 0.438933 22.7095 3.59723 22.7095 7.49382H22.7098C22.7098 11.3895 21.0682 14.5487 19.0434 14.5487C17.0185 14.5487 15.3769 11.3895 15.3769 7.49382C15.3769 3.59826 17.0181 0.438933 19.0431 0.438933H19.043ZM24.7105 1.17382C25.4225 1.17382 26 4.00339 26 7.49393C26 10.9833 25.4227 13.814 24.7105 13.814C23.9982 13.814 23.4212 10.9842 23.4212 7.49393C23.4212 4.00359 23.9985 1.17382 24.7105 1.17382Z" fill="var(--fill-0, #03045E)"/>
</svg>
