<svg preserveAspectRatio="none" width="100%" height="100%" overflow="visible" style="display: block;" viewBox="0 0 19.2817 15.9231" fill="none" xmlns="http://www.w3.org/2000/svg">
<path id="Vector" d="M6.0639 15.9231C13.3404 15.9231 17.3196 9.79766 17.3196 4.48586C17.3196 4.3119 17.3161 4.13874 17.3084 3.96629C18.0827 3.39701 18.7509 2.69214 19.2817 1.88474C18.5729 2.20495 17.8101 2.42047 17.0099 2.51764C17.8267 2.02001 18.4537 1.23273 18.7495 0.294299C17.973 0.762397 17.1234 1.09238 16.2375 1.27003C15.5156 0.488681 14.4879 0 13.3499 0C11.1652 0 9.39368 1.80019 9.39368 4.01919C9.39368 4.33467 9.42844 4.64143 9.49632 4.93577C6.20844 4.76766 3.29298 3.1681 1.3418 0.735887C0.990378 1.34934 0.805534 2.04654 0.806148 2.75629C0.806148 4.15092 1.50452 5.38205 2.56658 6.10234C1.93836 6.08284 1.32393 5.91042 0.774952 5.59956C0.774364 5.61644 0.774364 5.63288 0.774364 5.65092C0.774364 7.59764 2.13796 9.22303 3.94809 9.59133C3.60812 9.68541 3.25731 9.73298 2.90495 9.73277C2.65049 9.73277 2.40249 9.70733 2.16147 9.66032C2.66511 11.2575 4.1255 12.4198 5.85698 12.4522C4.50298 13.5306 2.79738 14.1729 0.943628 14.1729C0.628282 14.1732 0.313193 14.1546 0 14.1172C1.75079 15.2575 3.82969 15.9228 6.0641 15.9228" fill="var(--fill-0, #03045E)"/>
</svg>
